<mxfile host="app.diagrams.net" modified="2023-10-26T08:37:58.670Z" agent="Mozilla/5.0 (Windows NT 10.0; Win64; x64) AppleWebKit/537.36 (KHTML, like Gecko) Chrome/118.0.0.0 Safari/537.36 Edg/118.0.2088.61" etag="ELe2WWpL5vMfUBRU_Ham" version="21.8.0" type="github">
  <diagram name="第 1 页" id="xVjKZrTuiLn37DYIfyfU">
    <mxGraphModel dx="1358" dy="723" grid="1" gridSize="10" guides="1" tooltips="1" connect="1" arrows="1" fold="1" page="1" pageScale="1" pageWidth="827" pageHeight="1169" math="0" shadow="0">
      <root>
        <mxCell id="0" />
        <mxCell id="1" parent="0" />
        <mxCell id="7oUDpUNYdyQ7qnLqa4f8-8" value="" style="rounded=1;whiteSpace=wrap;html=1;strokeColor=none;fillColor=#e2efda;" vertex="1" parent="1">
          <mxGeometry x="360" y="280" width="520" height="320" as="geometry" />
        </mxCell>
        <mxCell id="7oUDpUNYdyQ7qnLqa4f8-63" value="" style="rounded=0;whiteSpace=wrap;html=1;dashed=1;fillColor=none;strokeColor=default;" vertex="1" parent="1">
          <mxGeometry x="420" y="340" width="400" height="200" as="geometry" />
        </mxCell>
        <mxCell id="7oUDpUNYdyQ7qnLqa4f8-2" value="电网需求端" style="text;html=1;strokeColor=none;fillColor=none;align=center;verticalAlign=middle;whiteSpace=wrap;rounded=0;fontSize=18;fontColor=#00CCCC;fontStyle=1" vertex="1" parent="1">
          <mxGeometry x="560" y="110" width="120" height="30" as="geometry" />
        </mxCell>
        <mxCell id="7oUDpUNYdyQ7qnLqa4f8-3" value="调峰调频" style="rounded=0;whiteSpace=wrap;html=1;fillColor=#02a683;fontColor=#ffffff;strokeColor=#02a683;fontSize=16;" vertex="1" parent="1">
          <mxGeometry x="330" y="160" width="100" height="40" as="geometry" />
        </mxCell>
        <mxCell id="7oUDpUNYdyQ7qnLqa4f8-4" value="削峰平谷" style="rounded=0;whiteSpace=wrap;html=1;fillColor=#02a683;fontColor=#ffffff;strokeColor=#02a683;fontSize=16;" vertex="1" parent="1">
          <mxGeometry x="450" y="160" width="100" height="40" as="geometry" />
        </mxCell>
        <mxCell id="7oUDpUNYdyQ7qnLqa4f8-5" value="需侧响应" style="rounded=0;whiteSpace=wrap;html=1;fillColor=#02a683;fontColor=#ffffff;strokeColor=#02a683;fontSize=16;" vertex="1" parent="1">
          <mxGeometry x="570" y="160" width="100" height="40" as="geometry" />
        </mxCell>
        <mxCell id="7oUDpUNYdyQ7qnLqa4f8-6" value="延迟建设" style="rounded=0;whiteSpace=wrap;html=1;fillColor=#02a683;fontColor=#ffffff;strokeColor=#02a683;fontSize=16;" vertex="1" parent="1">
          <mxGeometry x="690" y="160" width="100" height="40" as="geometry" />
        </mxCell>
        <mxCell id="7oUDpUNYdyQ7qnLqa4f8-7" value="风光并网" style="rounded=0;whiteSpace=wrap;html=1;fillColor=#02a683;fontColor=#ffffff;strokeColor=#02a683;fontSize=16;" vertex="1" parent="1">
          <mxGeometry x="810" y="160" width="100" height="40" as="geometry" />
        </mxCell>
        <mxCell id="7oUDpUNYdyQ7qnLqa4f8-44" style="edgeStyle=orthogonalEdgeStyle;rounded=0;orthogonalLoop=1;jettySize=auto;html=1;exitX=0.5;exitY=0;exitDx=0;exitDy=0;entryX=0.5;entryY=1;entryDx=0;entryDy=0;" edge="1" parent="1" source="7oUDpUNYdyQ7qnLqa4f8-9" target="7oUDpUNYdyQ7qnLqa4f8-5">
          <mxGeometry relative="1" as="geometry" />
        </mxCell>
        <mxCell id="7oUDpUNYdyQ7qnLqa4f8-47" style="edgeStyle=orthogonalEdgeStyle;rounded=0;orthogonalLoop=1;jettySize=auto;html=1;exitX=0.5;exitY=0;exitDx=0;exitDy=0;entryX=0.5;entryY=1;entryDx=0;entryDy=0;curved=1;" edge="1" parent="1" source="7oUDpUNYdyQ7qnLqa4f8-9" target="7oUDpUNYdyQ7qnLqa4f8-6">
          <mxGeometry relative="1" as="geometry">
            <Array as="points">
              <mxPoint x="620" y="220" />
              <mxPoint x="740" y="220" />
            </Array>
          </mxGeometry>
        </mxCell>
        <mxCell id="7oUDpUNYdyQ7qnLqa4f8-48" style="edgeStyle=orthogonalEdgeStyle;rounded=0;orthogonalLoop=1;jettySize=auto;html=1;entryX=0.5;entryY=1;entryDx=0;entryDy=0;curved=1;" edge="1" parent="1" target="7oUDpUNYdyQ7qnLqa4f8-7">
          <mxGeometry relative="1" as="geometry">
            <mxPoint x="620" y="230" as="sourcePoint" />
          </mxGeometry>
        </mxCell>
        <mxCell id="7oUDpUNYdyQ7qnLqa4f8-49" style="edgeStyle=orthogonalEdgeStyle;rounded=0;orthogonalLoop=1;jettySize=auto;html=1;entryX=0.5;entryY=1;entryDx=0;entryDy=0;curved=1;" edge="1" parent="1" target="7oUDpUNYdyQ7qnLqa4f8-3">
          <mxGeometry relative="1" as="geometry">
            <mxPoint x="620" y="230" as="sourcePoint" />
          </mxGeometry>
        </mxCell>
        <mxCell id="7oUDpUNYdyQ7qnLqa4f8-9" value="微电网" style="rounded=1;whiteSpace=wrap;html=1;fontSize=16;arcSize=21;fillColor=#eeeeee;strokeColor=none;" vertex="1" parent="1">
          <mxGeometry x="540" y="230" width="160" height="40" as="geometry" />
        </mxCell>
        <mxCell id="7oUDpUNYdyQ7qnLqa4f8-11" value="虚拟电厂&amp;amp;双碳平台" style="rounded=0;whiteSpace=wrap;html=1;fillColor=#02a683;fontColor=#ffffff;strokeColor=#02a683;fontSize=20;spacingLeft=10;spacingRight=10;fontStyle=1" vertex="1" parent="1">
          <mxGeometry x="520" y="400" width="200" height="80" as="geometry" />
        </mxCell>
        <mxCell id="7oUDpUNYdyQ7qnLqa4f8-12" value="储能电站" style="rounded=0;whiteSpace=wrap;html=1;fillColor=#02a683;fontColor=#ffffff;strokeColor=#02a683;fontSize=16;" vertex="1" parent="1">
          <mxGeometry x="448" y="680" width="100" height="40" as="geometry" />
        </mxCell>
        <mxCell id="7oUDpUNYdyQ7qnLqa4f8-13" value="弹性负载" style="rounded=0;whiteSpace=wrap;html=1;fillColor=#02a683;fontColor=#ffffff;strokeColor=#02a683;fontSize=16;" vertex="1" parent="1">
          <mxGeometry x="570" y="680" width="100" height="40" as="geometry" />
        </mxCell>
        <mxCell id="7oUDpUNYdyQ7qnLqa4f8-14" value="用户储能" style="rounded=0;whiteSpace=wrap;html=1;fillColor=#02a683;fontColor=#ffffff;strokeColor=#02a683;fontSize=16;" vertex="1" parent="1">
          <mxGeometry x="690" y="680" width="100" height="40" as="geometry" />
        </mxCell>
        <mxCell id="7oUDpUNYdyQ7qnLqa4f8-55" style="edgeStyle=orthogonalEdgeStyle;rounded=0;orthogonalLoop=1;jettySize=auto;html=1;entryX=0.5;entryY=0;entryDx=0;entryDy=0;" edge="1" parent="1" source="7oUDpUNYdyQ7qnLqa4f8-15" target="7oUDpUNYdyQ7qnLqa4f8-13">
          <mxGeometry relative="1" as="geometry" />
        </mxCell>
        <mxCell id="7oUDpUNYdyQ7qnLqa4f8-56" style="edgeStyle=orthogonalEdgeStyle;rounded=0;orthogonalLoop=1;jettySize=auto;html=1;entryX=0.5;entryY=0;entryDx=0;entryDy=0;curved=1;" edge="1" parent="1" source="7oUDpUNYdyQ7qnLqa4f8-15" target="7oUDpUNYdyQ7qnLqa4f8-12">
          <mxGeometry relative="1" as="geometry">
            <Array as="points">
              <mxPoint x="620" y="660" />
              <mxPoint x="498" y="660" />
            </Array>
          </mxGeometry>
        </mxCell>
        <mxCell id="7oUDpUNYdyQ7qnLqa4f8-57" style="edgeStyle=orthogonalEdgeStyle;rounded=0;orthogonalLoop=1;jettySize=auto;html=1;curved=1;" edge="1" parent="1" source="7oUDpUNYdyQ7qnLqa4f8-15" target="7oUDpUNYdyQ7qnLqa4f8-14">
          <mxGeometry relative="1" as="geometry">
            <Array as="points">
              <mxPoint x="620" y="660" />
              <mxPoint x="740" y="660" />
            </Array>
          </mxGeometry>
        </mxCell>
        <mxCell id="7oUDpUNYdyQ7qnLqa4f8-15" value="聚合商" style="rounded=1;whiteSpace=wrap;html=1;fillColor=#eeeeee;strokeColor=none;fontSize=16;arcSize=21;" vertex="1" parent="1">
          <mxGeometry x="540" y="610" width="160" height="40" as="geometry" />
        </mxCell>
        <mxCell id="7oUDpUNYdyQ7qnLqa4f8-50" style="edgeStyle=orthogonalEdgeStyle;rounded=0;orthogonalLoop=1;jettySize=auto;html=1;entryX=0;entryY=0.5;entryDx=0;entryDy=0;curved=1;" edge="1" parent="1" source="7oUDpUNYdyQ7qnLqa4f8-16" target="7oUDpUNYdyQ7qnLqa4f8-22">
          <mxGeometry relative="1" as="geometry">
            <Array as="points">
              <mxPoint x="940" y="440" />
              <mxPoint x="940" y="320" />
            </Array>
          </mxGeometry>
        </mxCell>
        <mxCell id="7oUDpUNYdyQ7qnLqa4f8-51" style="edgeStyle=orthogonalEdgeStyle;rounded=0;orthogonalLoop=1;jettySize=auto;html=1;entryX=0;entryY=0.5;entryDx=0;entryDy=0;curved=1;" edge="1" parent="1" source="7oUDpUNYdyQ7qnLqa4f8-16" target="7oUDpUNYdyQ7qnLqa4f8-24">
          <mxGeometry relative="1" as="geometry">
            <Array as="points">
              <mxPoint x="940" y="440" />
              <mxPoint x="940" y="560" />
            </Array>
          </mxGeometry>
        </mxCell>
        <mxCell id="7oUDpUNYdyQ7qnLqa4f8-52" style="edgeStyle=orthogonalEdgeStyle;rounded=0;orthogonalLoop=1;jettySize=auto;html=1;entryX=0;entryY=0.5;entryDx=0;entryDy=0;curved=1;" edge="1" parent="1" source="7oUDpUNYdyQ7qnLqa4f8-16" target="7oUDpUNYdyQ7qnLqa4f8-26">
          <mxGeometry relative="1" as="geometry" />
        </mxCell>
        <mxCell id="7oUDpUNYdyQ7qnLqa4f8-53" style="edgeStyle=orthogonalEdgeStyle;rounded=0;orthogonalLoop=1;jettySize=auto;html=1;entryX=0;entryY=0.5;entryDx=0;entryDy=0;curved=1;" edge="1" parent="1" source="7oUDpUNYdyQ7qnLqa4f8-16" target="7oUDpUNYdyQ7qnLqa4f8-23">
          <mxGeometry relative="1" as="geometry" />
        </mxCell>
        <mxCell id="7oUDpUNYdyQ7qnLqa4f8-54" style="edgeStyle=orthogonalEdgeStyle;rounded=0;orthogonalLoop=1;jettySize=auto;html=1;entryX=0;entryY=0.5;entryDx=0;entryDy=0;curved=1;" edge="1" parent="1" source="7oUDpUNYdyQ7qnLqa4f8-16" target="7oUDpUNYdyQ7qnLqa4f8-25">
          <mxGeometry relative="1" as="geometry" />
        </mxCell>
        <mxCell id="7oUDpUNYdyQ7qnLqa4f8-16" value="聚合商" style="rounded=1;whiteSpace=wrap;html=1;fillColor=#eeeeee;strokeColor=none;fontSize=16;arcSize=21;spacingLeft=10;spacingRight=10;" vertex="1" parent="1">
          <mxGeometry x="890" y="360" width="40" height="160" as="geometry" />
        </mxCell>
        <mxCell id="7oUDpUNYdyQ7qnLqa4f8-40" style="edgeStyle=orthogonalEdgeStyle;rounded=0;orthogonalLoop=1;jettySize=auto;html=1;exitX=0;exitY=0.5;exitDx=0;exitDy=0;curved=1;" edge="1" parent="1" source="7oUDpUNYdyQ7qnLqa4f8-17" target="7oUDpUNYdyQ7qnLqa4f8-18">
          <mxGeometry relative="1" as="geometry" />
        </mxCell>
        <mxCell id="7oUDpUNYdyQ7qnLqa4f8-41" style="edgeStyle=orthogonalEdgeStyle;rounded=0;orthogonalLoop=1;jettySize=auto;html=1;exitX=0;exitY=0.5;exitDx=0;exitDy=0;entryX=1;entryY=0.5;entryDx=0;entryDy=0;curved=1;" edge="1" parent="1" source="7oUDpUNYdyQ7qnLqa4f8-17" target="7oUDpUNYdyQ7qnLqa4f8-19">
          <mxGeometry relative="1" as="geometry" />
        </mxCell>
        <mxCell id="7oUDpUNYdyQ7qnLqa4f8-42" style="edgeStyle=orthogonalEdgeStyle;rounded=0;orthogonalLoop=1;jettySize=auto;html=1;exitX=0;exitY=0.5;exitDx=0;exitDy=0;curved=1;" edge="1" parent="1" source="7oUDpUNYdyQ7qnLqa4f8-17" target="7oUDpUNYdyQ7qnLqa4f8-20">
          <mxGeometry relative="1" as="geometry" />
        </mxCell>
        <mxCell id="7oUDpUNYdyQ7qnLqa4f8-43" style="edgeStyle=orthogonalEdgeStyle;rounded=0;orthogonalLoop=1;jettySize=auto;html=1;exitX=0;exitY=0.5;exitDx=0;exitDy=0;entryX=1;entryY=0.5;entryDx=0;entryDy=0;curved=1;" edge="1" parent="1" source="7oUDpUNYdyQ7qnLqa4f8-17" target="7oUDpUNYdyQ7qnLqa4f8-21">
          <mxGeometry relative="1" as="geometry" />
        </mxCell>
        <mxCell id="7oUDpUNYdyQ7qnLqa4f8-17" value="微电网" style="rounded=1;whiteSpace=wrap;html=1;fillColor=#eeeeee;strokeColor=none;fontSize=16;arcSize=21;spacingLeft=10;spacingRight=10;" vertex="1" parent="1">
          <mxGeometry x="310" y="360" width="40" height="160" as="geometry" />
        </mxCell>
        <mxCell id="7oUDpUNYdyQ7qnLqa4f8-18" value="火力发电" style="rounded=0;whiteSpace=wrap;html=1;fillColor=#02a683;fontColor=#ffffff;strokeColor=#02a683;fontSize=16;" vertex="1" parent="1">
          <mxGeometry x="180" y="330" width="100" height="40" as="geometry" />
        </mxCell>
        <mxCell id="7oUDpUNYdyQ7qnLqa4f8-19" value="水力发电" style="rounded=0;whiteSpace=wrap;html=1;fillColor=#02a683;fontColor=#ffffff;strokeColor=#02a683;fontSize=16;" vertex="1" parent="1">
          <mxGeometry x="180" y="390" width="100" height="40" as="geometry" />
        </mxCell>
        <mxCell id="7oUDpUNYdyQ7qnLqa4f8-20" value="风能发电" style="rounded=0;whiteSpace=wrap;html=1;fillColor=#02a683;fontColor=#ffffff;strokeColor=#02a683;fontSize=16;" vertex="1" parent="1">
          <mxGeometry x="180" y="450" width="100" height="40" as="geometry" />
        </mxCell>
        <mxCell id="7oUDpUNYdyQ7qnLqa4f8-21" value="光伏发电" style="rounded=0;whiteSpace=wrap;html=1;fillColor=#02a683;fontColor=#ffffff;strokeColor=#02a683;fontSize=16;" vertex="1" parent="1">
          <mxGeometry x="180" y="510" width="100" height="40" as="geometry" />
        </mxCell>
        <mxCell id="7oUDpUNYdyQ7qnLqa4f8-22" value="工业用电" style="rounded=0;whiteSpace=wrap;html=1;fillColor=#02a683;fontColor=#ffffff;strokeColor=#02a683;fontSize=16;" vertex="1" parent="1">
          <mxGeometry x="960" y="300" width="100" height="40" as="geometry" />
        </mxCell>
        <mxCell id="7oUDpUNYdyQ7qnLqa4f8-23" value="商业用电" style="rounded=0;whiteSpace=wrap;html=1;fillColor=#02a683;fontColor=#ffffff;strokeColor=#02a683;fontSize=16;" vertex="1" parent="1">
          <mxGeometry x="960" y="360" width="100" height="40" as="geometry" />
        </mxCell>
        <mxCell id="7oUDpUNYdyQ7qnLqa4f8-24" value="照明用电" style="rounded=0;whiteSpace=wrap;html=1;fillColor=#02a683;fontColor=#ffffff;strokeColor=#02a683;fontSize=16;" vertex="1" parent="1">
          <mxGeometry x="960" y="540" width="100" height="40" as="geometry" />
        </mxCell>
        <mxCell id="7oUDpUNYdyQ7qnLqa4f8-25" value="基站用电" style="rounded=0;whiteSpace=wrap;html=1;fillColor=#02a683;fontColor=#ffffff;strokeColor=#02a683;fontSize=16;" vertex="1" parent="1">
          <mxGeometry x="960" y="420" width="100" height="40" as="geometry" />
        </mxCell>
        <mxCell id="7oUDpUNYdyQ7qnLqa4f8-26" value="车辆用电" style="rounded=0;whiteSpace=wrap;html=1;fillColor=#02a683;fontColor=#ffffff;strokeColor=#02a683;fontSize=16;" vertex="1" parent="1">
          <mxGeometry x="960" y="480" width="100" height="40" as="geometry" />
        </mxCell>
        <mxCell id="7oUDpUNYdyQ7qnLqa4f8-27" value="供电负荷侧" style="text;html=1;strokeColor=none;fillColor=none;align=center;verticalAlign=middle;whiteSpace=wrap;rounded=0;fontSize=18;fontColor=#00CCCC;fontStyle=1" vertex="1" parent="1">
          <mxGeometry x="130" y="380" width="30" height="120" as="geometry" />
        </mxCell>
        <mxCell id="7oUDpUNYdyQ7qnLqa4f8-28" value="用电需求侧" style="text;html=1;strokeColor=none;fillColor=none;align=center;verticalAlign=middle;whiteSpace=wrap;rounded=0;fontSize=18;fontColor=#00CCCC;fontStyle=1" vertex="1" parent="1">
          <mxGeometry x="1080" y="380" width="30" height="120" as="geometry" />
        </mxCell>
        <mxCell id="7oUDpUNYdyQ7qnLqa4f8-29" value="能源资源端" style="text;html=1;strokeColor=none;fillColor=none;align=center;verticalAlign=middle;whiteSpace=wrap;rounded=0;fontSize=18;fontColor=#00CCCC;fontStyle=1" vertex="1" parent="1">
          <mxGeometry x="560" y="740" width="120" height="30" as="geometry" />
        </mxCell>
        <mxCell id="7oUDpUNYdyQ7qnLqa4f8-30" value="网" style="ellipse;whiteSpace=wrap;html=1;aspect=fixed;fontSize=18;fontStyle=0;strokeColor=none;fillColor=#02a683;fontColor=#FFFFFF;" vertex="1" parent="1">
          <mxGeometry x="600" y="320" width="40" height="40" as="geometry" />
        </mxCell>
        <mxCell id="7oUDpUNYdyQ7qnLqa4f8-31" value="储" style="ellipse;whiteSpace=wrap;html=1;aspect=fixed;fontSize=18;fontStyle=0;strokeColor=none;fillColor=#02a683;fontColor=#FFFFFF;" vertex="1" parent="1">
          <mxGeometry x="600" y="520" width="40" height="40" as="geometry" />
        </mxCell>
        <mxCell id="7oUDpUNYdyQ7qnLqa4f8-32" value="源" style="ellipse;whiteSpace=wrap;html=1;aspect=fixed;fontSize=18;fontStyle=0;strokeColor=none;fillColor=#02a683;fontColor=#FFFFFF;" vertex="1" parent="1">
          <mxGeometry x="400" y="420" width="40" height="40" as="geometry" />
        </mxCell>
        <mxCell id="7oUDpUNYdyQ7qnLqa4f8-34" value="荷" style="ellipse;whiteSpace=wrap;html=1;aspect=fixed;fontSize=18;fontStyle=0;strokeColor=none;fillColor=#02a683;fontColor=#FFFFFF;" vertex="1" parent="1">
          <mxGeometry x="800" y="420" width="40" height="40" as="geometry" />
        </mxCell>
        <mxCell id="7oUDpUNYdyQ7qnLqa4f8-36" value="电网" style="text;html=1;strokeColor=none;fillColor=none;align=center;verticalAlign=middle;whiteSpace=wrap;rounded=0;" vertex="1" parent="1">
          <mxGeometry x="350" y="400" width="60" height="30" as="geometry" />
        </mxCell>
        <mxCell id="7oUDpUNYdyQ7qnLqa4f8-37" value="资源" style="text;html=1;strokeColor=none;fillColor=none;align=center;verticalAlign=middle;whiteSpace=wrap;rounded=0;" vertex="1" parent="1">
          <mxGeometry x="350" y="450" width="60" height="30" as="geometry" />
        </mxCell>
        <mxCell id="7oUDpUNYdyQ7qnLqa4f8-39" value="" style="endArrow=classic;startArrow=classic;html=1;rounded=0;exitX=1;exitY=0.5;exitDx=0;exitDy=0;" edge="1" parent="1" source="7oUDpUNYdyQ7qnLqa4f8-17">
          <mxGeometry width="50" height="50" relative="1" as="geometry">
            <mxPoint x="360" y="490" as="sourcePoint" />
            <mxPoint x="400" y="440" as="targetPoint" />
          </mxGeometry>
        </mxCell>
        <mxCell id="7oUDpUNYdyQ7qnLqa4f8-46" style="edgeStyle=orthogonalEdgeStyle;rounded=0;orthogonalLoop=1;jettySize=auto;html=1;exitX=0.5;exitY=0;exitDx=0;exitDy=0;entryX=0.43;entryY=1.035;entryDx=0;entryDy=0;entryPerimeter=0;curved=1;" edge="1" parent="1" source="7oUDpUNYdyQ7qnLqa4f8-9" target="7oUDpUNYdyQ7qnLqa4f8-4">
          <mxGeometry relative="1" as="geometry">
            <Array as="points">
              <mxPoint x="620" y="220" />
              <mxPoint x="493" y="220" />
            </Array>
          </mxGeometry>
        </mxCell>
        <mxCell id="7oUDpUNYdyQ7qnLqa4f8-58" value="" style="endArrow=classic;startArrow=classic;html=1;rounded=0;entryX=0.5;entryY=1;entryDx=0;entryDy=0;" edge="1" parent="1" target="7oUDpUNYdyQ7qnLqa4f8-31">
          <mxGeometry width="50" height="50" relative="1" as="geometry">
            <mxPoint x="620" y="610" as="sourcePoint" />
            <mxPoint x="670" y="560" as="targetPoint" />
          </mxGeometry>
        </mxCell>
        <mxCell id="7oUDpUNYdyQ7qnLqa4f8-59" value="" style="endArrow=classic;startArrow=classic;html=1;rounded=0;entryX=0;entryY=0.5;entryDx=0;entryDy=0;exitX=1;exitY=0.5;exitDx=0;exitDy=0;" edge="1" parent="1" source="7oUDpUNYdyQ7qnLqa4f8-34" target="7oUDpUNYdyQ7qnLqa4f8-16">
          <mxGeometry width="50" height="50" relative="1" as="geometry">
            <mxPoint x="800" y="520" as="sourcePoint" />
            <mxPoint x="850" y="470" as="targetPoint" />
          </mxGeometry>
        </mxCell>
        <mxCell id="7oUDpUNYdyQ7qnLqa4f8-60" value="" style="endArrow=classic;startArrow=classic;html=1;rounded=0;entryX=0.5;entryY=1;entryDx=0;entryDy=0;exitX=0.5;exitY=0;exitDx=0;exitDy=0;" edge="1" parent="1" source="7oUDpUNYdyQ7qnLqa4f8-30" target="7oUDpUNYdyQ7qnLqa4f8-9">
          <mxGeometry width="50" height="50" relative="1" as="geometry">
            <mxPoint x="570" y="340" as="sourcePoint" />
            <mxPoint x="620" y="290" as="targetPoint" />
          </mxGeometry>
        </mxCell>
        <mxCell id="7oUDpUNYdyQ7qnLqa4f8-61" value="数据" style="text;html=1;strokeColor=none;fillColor=none;align=center;verticalAlign=middle;whiteSpace=wrap;rounded=0;" vertex="1" parent="1">
          <mxGeometry x="830" y="400" width="60" height="30" as="geometry" />
        </mxCell>
        <mxCell id="7oUDpUNYdyQ7qnLqa4f8-62" value="预测" style="text;html=1;strokeColor=none;fillColor=none;align=center;verticalAlign=middle;whiteSpace=wrap;rounded=0;" vertex="1" parent="1">
          <mxGeometry x="830" y="450" width="60" height="30" as="geometry" />
        </mxCell>
        <mxCell id="7oUDpUNYdyQ7qnLqa4f8-64" style="edgeStyle=orthogonalEdgeStyle;rounded=0;orthogonalLoop=1;jettySize=auto;html=1;exitX=0.5;exitY=1;exitDx=0;exitDy=0;" edge="1" parent="1" source="7oUDpUNYdyQ7qnLqa4f8-37" target="7oUDpUNYdyQ7qnLqa4f8-37">
          <mxGeometry relative="1" as="geometry" />
        </mxCell>
        <mxCell id="7oUDpUNYdyQ7qnLqa4f8-65" value="业务中台" style="text;html=1;strokeColor=none;fillColor=none;align=center;verticalAlign=middle;whiteSpace=wrap;rounded=0;fontSize=16;" vertex="1" parent="1">
          <mxGeometry x="440" y="360" width="90" height="30" as="geometry" />
        </mxCell>
        <mxCell id="7oUDpUNYdyQ7qnLqa4f8-66" value="企业中台" style="text;html=1;strokeColor=none;fillColor=none;align=center;verticalAlign=middle;whiteSpace=wrap;rounded=0;fontSize=16;" vertex="1" parent="1">
          <mxGeometry x="440" y="490" width="90" height="30" as="geometry" />
        </mxCell>
        <mxCell id="7oUDpUNYdyQ7qnLqa4f8-67" value="loT平台" style="text;html=1;strokeColor=none;fillColor=none;align=center;verticalAlign=middle;whiteSpace=wrap;rounded=0;fontSize=16;" vertex="1" parent="1">
          <mxGeometry x="710" y="490" width="90" height="30" as="geometry" />
        </mxCell>
        <mxCell id="7oUDpUNYdyQ7qnLqa4f8-68" value="数据中心" style="text;html=1;strokeColor=none;fillColor=none;align=center;verticalAlign=middle;whiteSpace=wrap;rounded=0;fontSize=16;" vertex="1" parent="1">
          <mxGeometry x="710" y="360" width="90" height="30" as="geometry" />
        </mxCell>
      </root>
    </mxGraphModel>
  </diagram>
</mxfile>
